<mxfile host="app.diagrams.net" agent="Mozilla/5.0 (Windows NT 10.0; Win64; x64; rv:138.0) Gecko/20100101 Firefox/138.0" version="27.0.5">
  <diagram name="Page-1" id="rLgOr-rTAtwNgxCE8xCh">
    <mxGraphModel dx="786" dy="471" grid="1" gridSize="10" guides="1" tooltips="1" connect="1" arrows="1" fold="1" page="1" pageScale="1" pageWidth="3300" pageHeight="4681" math="0" shadow="0">
      <root>
        <mxCell id="0" />
        <mxCell id="1" parent="0" />
        <mxCell id="Cl7aIuDR4lCNFtvxYEvZ-3" style="edgeStyle=orthogonalEdgeStyle;rounded=0;orthogonalLoop=1;jettySize=auto;html=1;exitX=1;exitY=0.5;exitDx=0;exitDy=0;entryX=0;entryY=0.5;entryDx=0;entryDy=0;" edge="1" parent="1" source="Cl7aIuDR4lCNFtvxYEvZ-1" target="Cl7aIuDR4lCNFtvxYEvZ-2">
          <mxGeometry relative="1" as="geometry" />
        </mxCell>
        <mxCell id="Cl7aIuDR4lCNFtvxYEvZ-1" value="data:numeric&#xa;Overnight Poly-&#xa;somnographic&#xa;Recordings" style="rectangle;fillColor=#fff2cc;strokeColor=#d6b656;" name="data" vertex="1" parent="1">
          <mxGeometry x="340" y="230" width="100" height="50" as="geometry" />
        </mxCell>
        <mxCell id="Cl7aIuDR4lCNFtvxYEvZ-5" style="edgeStyle=orthogonalEdgeStyle;rounded=0;orthogonalLoop=1;jettySize=auto;html=1;exitX=1;exitY=0.5;exitDx=0;exitDy=0;entryX=0;entryY=0.5;entryDx=0;entryDy=0;" edge="1" parent="1" source="Cl7aIuDR4lCNFtvxYEvZ-2" target="Cl7aIuDR4lCNFtvxYEvZ-4">
          <mxGeometry relative="1" as="geometry" />
        </mxCell>
        <mxCell id="Cl7aIuDR4lCNFtvxYEvZ-2" value="transform" style="rounded=1;whiteSpace=wrap;html=1;arcSize=50;fillColor=#f8cecc;strokeColor=#b85450;" name="transform" vertex="1" parent="1">
          <mxGeometry x="520" y="230" width="100" height="50" as="geometry" />
        </mxCell>
        <mxCell id="Cl7aIuDR4lCNFtvxYEvZ-24" style="edgeStyle=orthogonalEdgeStyle;rounded=0;orthogonalLoop=1;jettySize=auto;html=1;exitX=0.5;exitY=1;exitDx=0;exitDy=0;entryX=0.5;entryY=0;entryDx=0;entryDy=0;" edge="1" parent="1" source="Cl7aIuDR4lCNFtvxYEvZ-4" target="Cl7aIuDR4lCNFtvxYEvZ-23">
          <mxGeometry relative="1" as="geometry" />
        </mxCell>
        <mxCell id="Cl7aIuDR4lCNFtvxYEvZ-4" value="data:numeric&#xa;Cleaned&#xa;Physiological&#xa;Signals" style="rectangle;fillColor=#fff2cc;strokeColor=#d6b656;" name="data" vertex="1" parent="1">
          <mxGeometry x="700" y="230" width="100" height="50" as="geometry" />
        </mxCell>
        <mxCell id="Cl7aIuDR4lCNFtvxYEvZ-15" style="edgeStyle=orthogonalEdgeStyle;rounded=0;orthogonalLoop=1;jettySize=auto;html=1;exitX=1;exitY=0.5;exitDx=0;exitDy=0;entryX=0;entryY=0.5;entryDx=0;entryDy=0;" edge="1" parent="1" source="Cl7aIuDR4lCNFtvxYEvZ-6" target="Cl7aIuDR4lCNFtvxYEvZ-14">
          <mxGeometry relative="1" as="geometry" />
        </mxCell>
        <mxCell id="Cl7aIuDR4lCNFtvxYEvZ-6" value="generate:engineer" style="rounded=1;whiteSpace=wrap;html=1;arcSize=50;fillColor=#e1d5e7;strokeColor=#9673a6;" name="generate:engineer" vertex="1" parent="1">
          <mxGeometry x="970" y="230" width="100" height="50" as="geometry" />
        </mxCell>
        <mxCell id="Cl7aIuDR4lCNFtvxYEvZ-8" value="&lt;div&gt;error&lt;/div&gt;&lt;div&gt;--&amp;gt;&lt;/div&gt;" style="text;html=1;align=center;verticalAlign=middle;whiteSpace=wrap;rounded=0;dashed=1;fillColor=#f5f5f5;fontColor=#333333;strokeColor=#666666;strokeWidth=2;" name="text" vertex="1" parent="1">
          <mxGeometry x="800" y="240" width="170" height="30" as="geometry" />
        </mxCell>
        <mxCell id="Cl7aIuDR4lCNFtvxYEvZ-9" value="data&#xa;Clinical Guidelines&#xa;for Sleep Staging" style="rectangle;fillColor=#fff2cc;strokeColor=#d6b656;" name="data" vertex="1" parent="1">
          <mxGeometry x="970" y="100" width="100" height="50" as="geometry" />
        </mxCell>
        <mxCell id="Cl7aIuDR4lCNFtvxYEvZ-11" value="&lt;div&gt;error&lt;/div&gt;&lt;div&gt;|&lt;/div&gt;&lt;div&gt;|&lt;/div&gt;&lt;div&gt;v&lt;/div&gt;" style="text;html=1;align=center;verticalAlign=middle;whiteSpace=wrap;rounded=0;dashed=1;fillColor=#f5f5f5;fontColor=#333333;strokeColor=#666666;strokeWidth=2;" name="text" vertex="1" parent="1">
          <mxGeometry x="1005" y="150" width="30" height="80" as="geometry" />
        </mxCell>
        <mxCell id="Cl7aIuDR4lCNFtvxYEvZ-13" style="edgeStyle=orthogonalEdgeStyle;rounded=0;orthogonalLoop=1;jettySize=auto;html=1;entryX=0.5;entryY=1;entryDx=0;entryDy=0;" edge="1" parent="1" source="Cl7aIuDR4lCNFtvxYEvZ-12" target="Cl7aIuDR4lCNFtvxYEvZ-6">
          <mxGeometry relative="1" as="geometry" />
        </mxCell>
        <mxCell id="Cl7aIuDR4lCNFtvxYEvZ-12" value="actor&#xa;Physician" style="triangle;fillColor=#ffe6cc;strokeColor=#d79b00;" name="actor" vertex="1" parent="1">
          <mxGeometry x="970" y="350" width="100" height="50" as="geometry" />
        </mxCell>
        <mxCell id="Cl7aIuDR4lCNFtvxYEvZ-17" style="edgeStyle=orthogonalEdgeStyle;rounded=0;orthogonalLoop=1;jettySize=auto;html=1;exitX=0.5;exitY=1;exitDx=0;exitDy=0;entryX=0.5;entryY=0;entryDx=0;entryDy=0;" edge="1" parent="1" source="Cl7aIuDR4lCNFtvxYEvZ-14" target="Cl7aIuDR4lCNFtvxYEvZ-16">
          <mxGeometry relative="1" as="geometry" />
        </mxCell>
        <mxCell id="Cl7aIuDR4lCNFtvxYEvZ-14" value="model:semantic&#xa;Symbolic Fusion&#xa;Framework" style="shape=hexagon;perimeter=hexagonPerimeter2;fillColor=#b0e3e6;strokeColor=#0e8088;" name="model" vertex="1" parent="1">
          <mxGeometry x="1140" y="230" width="120" height="50" as="geometry" />
        </mxCell>
        <mxCell id="Cl7aIuDR4lCNFtvxYEvZ-21" style="edgeStyle=orthogonalEdgeStyle;rounded=0;orthogonalLoop=1;jettySize=auto;html=1;exitX=1;exitY=0.5;exitDx=0;exitDy=0;entryX=0;entryY=0.5;entryDx=0;entryDy=0;" edge="1" parent="1" source="Cl7aIuDR4lCNFtvxYEvZ-16" target="Cl7aIuDR4lCNFtvxYEvZ-20">
          <mxGeometry relative="1" as="geometry" />
        </mxCell>
        <mxCell id="Cl7aIuDR4lCNFtvxYEvZ-16" value="infer:deduce" style="rounded=1;whiteSpace=wrap;html=1;arcSize=50;fillColor=#bac8d3;strokeColor=#23445d;" name="infer:deduce" vertex="1" parent="1">
          <mxGeometry x="1150" y="350" width="100" height="50" as="geometry" />
        </mxCell>
        <mxCell id="Cl7aIuDR4lCNFtvxYEvZ-19" style="edgeStyle=orthogonalEdgeStyle;rounded=0;orthogonalLoop=1;jettySize=auto;html=1;entryX=0.5;entryY=1;entryDx=0;entryDy=0;" edge="1" parent="1" source="Cl7aIuDR4lCNFtvxYEvZ-18" target="Cl7aIuDR4lCNFtvxYEvZ-16">
          <mxGeometry relative="1" as="geometry" />
        </mxCell>
        <mxCell id="Cl7aIuDR4lCNFtvxYEvZ-18" value="data&#xa;Personalized&#xa;Threshold" style="rectangle;fillColor=#fff2cc;strokeColor=#d6b656;" name="data" vertex="1" parent="1">
          <mxGeometry x="1150" y="480" width="100" height="50" as="geometry" />
        </mxCell>
        <mxCell id="Cl7aIuDR4lCNFtvxYEvZ-20" value="symbol&#xa;Hypnogram" style="rectangle;fillColor=#dae8fc;strokeColor=#6c8ebf;" name="symbol" vertex="1" parent="1">
          <mxGeometry x="1330" y="350" width="100" height="50" as="geometry" />
        </mxCell>
        <mxCell id="Cl7aIuDR4lCNFtvxYEvZ-30" style="edgeStyle=orthogonalEdgeStyle;rounded=0;orthogonalLoop=1;jettySize=auto;html=1;exitX=0.5;exitY=1;exitDx=0;exitDy=0;entryX=0.5;entryY=0;entryDx=0;entryDy=0;" edge="1" parent="1" source="Cl7aIuDR4lCNFtvxYEvZ-22" target="Cl7aIuDR4lCNFtvxYEvZ-29">
          <mxGeometry relative="1" as="geometry" />
        </mxCell>
        <mxCell id="Cl7aIuDR4lCNFtvxYEvZ-22" value="transform:embed" style="rounded=1;whiteSpace=wrap;html=1;arcSize=50;fillColor=#f8cecc;strokeColor=#b85450;" name="transform" vertex="1" parent="1">
          <mxGeometry x="610" y="350" width="100" height="50" as="geometry" />
        </mxCell>
        <mxCell id="Cl7aIuDR4lCNFtvxYEvZ-32" style="edgeStyle=orthogonalEdgeStyle;rounded=0;orthogonalLoop=1;jettySize=auto;html=1;exitX=0.5;exitY=1;exitDx=0;exitDy=0;entryX=0.5;entryY=0;entryDx=0;entryDy=0;" edge="1" parent="1" source="Cl7aIuDR4lCNFtvxYEvZ-23" target="Cl7aIuDR4lCNFtvxYEvZ-31">
          <mxGeometry relative="1" as="geometry" />
        </mxCell>
        <mxCell id="Cl7aIuDR4lCNFtvxYEvZ-23" value="transform:embed" style="rounded=1;whiteSpace=wrap;html=1;arcSize=50;fillColor=#f8cecc;strokeColor=#b85450;" name="transform" vertex="1" parent="1">
          <mxGeometry x="790" y="350" width="100" height="50" as="geometry" />
        </mxCell>
        <mxCell id="Cl7aIuDR4lCNFtvxYEvZ-27" value="&lt;div&gt;error&lt;/div&gt;&lt;div&gt;&amp;lt;--&lt;/div&gt;" style="text;html=1;align=center;verticalAlign=middle;whiteSpace=wrap;rounded=0;dashed=1;fillColor=#f5f5f5;fontColor=#333333;strokeColor=#666666;strokeWidth=2;" name="text" vertex="1" parent="1">
          <mxGeometry x="890" y="360" width="80" height="30" as="geometry" />
        </mxCell>
        <mxCell id="Cl7aIuDR4lCNFtvxYEvZ-28" value="&lt;div&gt;error&lt;/div&gt;&lt;div&gt;|&lt;/div&gt;&lt;div&gt;v&lt;/div&gt;" style="text;html=1;align=center;verticalAlign=middle;whiteSpace=wrap;rounded=0;dashed=1;fillColor=#f5f5f5;fontColor=#333333;strokeColor=#666666;strokeWidth=2;" name="text" vertex="1" parent="1">
          <mxGeometry x="660" y="310" width="90" height="40" as="geometry" />
        </mxCell>
        <mxCell id="Cl7aIuDR4lCNFtvxYEvZ-34" style="edgeStyle=orthogonalEdgeStyle;rounded=0;orthogonalLoop=1;jettySize=auto;html=1;exitX=0.5;exitY=1;exitDx=0;exitDy=0;entryX=0;entryY=0.5;entryDx=0;entryDy=0;" edge="1" parent="1" source="Cl7aIuDR4lCNFtvxYEvZ-29" target="Cl7aIuDR4lCNFtvxYEvZ-33">
          <mxGeometry relative="1" as="geometry" />
        </mxCell>
        <mxCell id="Cl7aIuDR4lCNFtvxYEvZ-29" value="data&#xa;Sleep Events&#xa;Parameters" style="rectangle;fillColor=#fff2cc;strokeColor=#d6b656;" name="data" vertex="1" parent="1">
          <mxGeometry x="610" y="480" width="100" height="50" as="geometry" />
        </mxCell>
        <mxCell id="Cl7aIuDR4lCNFtvxYEvZ-31" value="data&#xa;Partially Scored&#xa;Hypnogram" style="rectangle;fillColor=#fff2cc;strokeColor=#d6b656;" name="data" vertex="1" parent="1">
          <mxGeometry x="790" y="480" width="100" height="50" as="geometry" />
        </mxCell>
        <mxCell id="Cl7aIuDR4lCNFtvxYEvZ-37" style="edgeStyle=orthogonalEdgeStyle;rounded=0;orthogonalLoop=1;jettySize=auto;html=1;exitX=1;exitY=0.5;exitDx=0;exitDy=0;entryX=0.5;entryY=1;entryDx=0;entryDy=0;" edge="1" parent="1" source="Cl7aIuDR4lCNFtvxYEvZ-33" target="Cl7aIuDR4lCNFtvxYEvZ-18">
          <mxGeometry relative="1" as="geometry" />
        </mxCell>
        <mxCell id="Cl7aIuDR4lCNFtvxYEvZ-33" value="transform:embed" style="rounded=1;whiteSpace=wrap;html=1;arcSize=50;fillColor=#f8cecc;strokeColor=#b85450;" name="transform" vertex="1" parent="1">
          <mxGeometry x="970" y="580" width="100" height="50" as="geometry" />
        </mxCell>
        <mxCell id="Cl7aIuDR4lCNFtvxYEvZ-36" value="&lt;div&gt;error&lt;/div&gt;&lt;div&gt;|&lt;/div&gt;&lt;div&gt;&amp;nbsp;&amp;nbsp;&amp;nbsp; --&amp;gt;&lt;/div&gt;" style="text;html=1;align=center;verticalAlign=middle;whiteSpace=wrap;rounded=0;dashed=1;fillColor=#f5f5f5;fontColor=#333333;strokeColor=#666666;strokeWidth=2;" name="text" vertex="1" parent="1">
          <mxGeometry x="840" y="530" width="130" height="70" as="geometry" />
        </mxCell>
      </root>
    </mxGraphModel>
  </diagram>
</mxfile>
